# xmcd
#
# Track frame offsets:
#	150
#	20749
#	32987
#	47852
#	62515
#	80564
#	94007
#	105400
#	122493
#	137667
#	154736
#	169156
#	179501
#	191431
#
# Disc length: 3035 seconds
#
# Revision: 1
# Processed by: cddbd v1.5.2PL0 Copyright (c) Steve Scherf et al.
# Submitted via: audiograbber 1.83.01
#
DISCID=b70bd90e
DTITLE=Various Artist - CDX 036
DYEAR=1992
DGENRE=Country
TTITLE0=Lionel Cartwright - Be My Angel
TTITLE1=Lee Greenwood - Before I'm Ever Over You
TTITLE2=Collin Raye - In This Life
TTITLE3=Radney Foster - Just Call Me Lonesome
TTITLE4=Suzy Bogguss - Letting Go
TTITLE5=Alan Jackson - Love's Got A Hold On You
TTITLE6=Hank Williams Jr. - Lyin' Jukebox
TTITLE7=The Statler Brothers - Nobody Loves Here Anymore
TTITLE8=Dwight Yoakam ft. Patty Loveless - Send A Message To My Heart
TTITLE9=Molly and The Heymakers - Swinging Doors
TTITLE10=Jeff Chance - Walk Softly On The Bridges
TTITLE11=Ricky van Shelton - Wear My Ring Around Your Neck
TTITLE12=Chris Ledoux ft. Garth Brooks - Whatcha Gonna Do With A Cowboy
TTITLE13=Tim Mensy - Interview
EXTD=
EXTT0=
EXTT1=
EXTT2=
EXTT3=
EXTT4=
EXTT5=
EXTT6=
EXTT7=
EXTT8=
EXTT9=
EXTT10=
EXTT11=
EXTT12=
EXTT13=
PLAYORDER=
